<?xml version="1.0" encoding="UTF-8"?>
<svg xmlns="http://www.w3.org/2000/svg" xmlns:xlink="http://www.w3.org/1999/xlink" viewBox="0 0 64 64" width="64px" height="64px">
<g id="surface147649459">
<path style=" stroke:none;fill-rule:nonzero;fill:rgb(100%,100%,100%);fill-opacity:1;" d="M 31 0 C 29.683594 0 28.574219 0.859375 28.171875 2.042969 C 18.082031 2.480469 10 10.804688 10 21 L 10 25.84375 L 0.699219 54.675781 C 0.445312 55.460938 0.53125 56.324219 0.929688 57.046875 C 1.324219 57.765625 2.007812 58.296875 2.804688 58.503906 L 4.265625 58.878906 C 12.425781 60.984375 20.796875 62.121094 29.191406 62.332031 L 30.339844 63.097656 C 30.84375 63.433594 31.421875 63.601562 32 63.601562 C 32.578125 63.601562 33.15625 63.433594 33.664062 63.097656 L 34.8125 62.332031 C 43.203125 62.121094 51.578125 60.984375 59.738281 58.878906 L 61.195312 58.503906 C 61.992188 58.296875 62.679688 57.769531 63.078125 57.046875 C 63.472656 56.324219 63.558594 55.460938 63.304688 54.675781 L 54.003906 25.84375 L 54.003906 21 C 54.003906 10.804688 45.917969 2.480469 35.828125 2.042969 C 35.425781 0.859375 34.316406 0 33 0 Z M 31 2 L 33 2 C 33.550781 2 34 2.449219 34 3 L 34 26 C 34 26.550781 33.550781 27 33 27 L 31 27 C 30.449219 27 30 26.550781 30 26 L 30 3 C 30 2.449219 30.449219 2 31 2 Z M 28 4.050781 L 28 24.953125 C 26.761719 24.335938 25.390625 24 24 24 L 22.390625 24 C 18.707031 24 15.433594 26.203125 14.046875 29.617188 L 3.15625 56.492188 C 2.957031 56.402344 2.785156 56.273438 2.679688 56.082031 C 2.546875 55.835938 2.515625 55.558594 2.601562 55.289062 L 11.953125 26.308594 L 12 21 C 12 11.964844 19.09375 4.574219 28 4.050781 Z M 36 4.050781 C 44.90625 4.574219 52.003906 11.964844 52.003906 21 L 52.003906 26.15625 L 61.398438 55.289062 C 61.484375 55.554688 61.460938 55.835938 61.324219 56.082031 C 61.21875 56.273438 61.046875 56.40625 60.847656 56.492188 L 49.957031 29.617188 C 48.570312 26.203125 45.292969 24 41.609375 24 L 40 24 C 38.609375 24 37.238281 24.335938 36 24.953125 Z M 38.875 6.582031 C 38.488281 6.625 38.144531 6.894531 38.027344 7.292969 C 37.871094 7.820312 38.175781 8.378906 38.703125 8.535156 C 39.390625 8.738281 40.0625 9 40.699219 9.3125 C 40.839844 9.382812 40.988281 9.414062 41.136719 9.414062 C 41.503906 9.414062 41.859375 9.207031 42.03125 8.851562 C 42.277344 8.355469 42.070312 7.757812 41.578125 7.515625 C 40.839844 7.15625 40.066406 6.851562 39.269531 6.617188 C 39.140625 6.578125 39.003906 6.566406 38.875 6.582031 Z M 44.273438 9.5625 C 44.019531 9.578125 43.769531 9.6875 43.585938 9.894531 C 43.21875 10.304688 43.25 10.9375 43.660156 11.308594 C 45.0625 12.558594 46.195312 14.128906 46.9375 15.84375 C 47.101562 16.222656 47.46875 16.449219 47.855469 16.449219 C 47.988281 16.449219 48.125 16.421875 48.253906 16.363281 C 48.761719 16.144531 48.996094 15.558594 48.777344 15.050781 C 47.917969 13.070312 46.609375 11.261719 44.996094 9.816406 C 44.789062 9.632812 44.527344 9.546875 44.273438 9.5625 Z M 22.390625 26 L 24 26 C 25.160156 26 26.304688 26.289062 27.316406 26.835938 C 27.636719 27.007812 27.96875 27.152344 28.300781 27.285156 C 28.785156 28.296875 29.808594 29 31 29 L 33 29 C 34.191406 29 35.214844 28.296875 35.699219 27.285156 C 36.03125 27.152344 36.359375 27.007812 36.683594 26.835938 C 37.695312 26.289062 38.839844 26 40 26 L 41.609375 26 C 44.472656 26 47.023438 27.714844 48.101562 30.371094 L 58.90625 57.023438 C 52.046875 58.769531 45.03125 59.824219 37.992188 60.210938 L 42.785156 57.015625 C 43.335938 57.617188 44.121094 58.003906 45 58.003906 C 46.652344 58.003906 48.003906 56.65625 48.003906 55.003906 C 48.003906 53.726562 47.191406 52.640625 46.0625 52.207031 L 51.835938 43.554688 C 52.144531 43.09375 52.019531 42.476562 51.558594 42.167969 C 51.097656 41.859375 50.476562 41.984375 50.171875 42.445312 L 43.785156 52.019531 L 35 41.636719 L 35 40 C 35 38.347656 33.652344 37 32 37 C 30.347656 37 29 38.347656 29 40 L 29 41.636719 L 20.214844 52.019531 L 13.832031 42.445312 C 13.523438 41.984375 12.90625 41.863281 12.445312 42.171875 C 11.984375 42.476562 11.859375 43.097656 12.167969 43.558594 L 17.9375 52.207031 C 16.808594 52.640625 16 53.726562 16 55.003906 C 16 56.65625 17.347656 58.003906 19 58.003906 C 19.878906 58.003906 20.664062 57.617188 21.214844 57.015625 L 26.007812 60.210938 C 18.964844 59.824219 11.957031 58.769531 5.097656 57.023438 L 15.902344 30.371094 C 16.980469 27.714844 19.523438 26 22.390625 26 Z M 23.042969 28 C 20.179688 28 17.632812 29.714844 16.558594 32.367188 L 16.503906 32.496094 C 16.003906 33.730469 16.148438 35.128906 16.890625 36.234375 C 17.636719 37.339844 18.878906 38 20.210938 38 L 26 38 C 28.207031 38 30 36.207031 30 34 C 30 30.691406 27.308594 28 24 28 Z M 40 28 C 36.691406 28 34 30.691406 34 34 C 34 36.207031 35.792969 38 38 38 L 43.789062 38 C 45.121094 38 46.363281 37.339844 47.109375 36.234375 C 47.851562 35.128906 48 33.730469 47.496094 32.496094 L 47.445312 32.371094 C 46.371094 29.714844 43.820312 28 40.957031 28 Z M 23.042969 30 L 24 30 C 26.207031 30 28 31.792969 28 34 C 28 35.101562 27.101562 36 26 36 L 20.210938 36 C 19.535156 36 18.929688 35.679688 18.550781 35.117188 C 18.171875 34.554688 18.101562 33.875 18.355469 33.25 L 18.40625 33.121094 C 19.175781 31.226562 20.996094 30 23.042969 30 Z M 40 30 L 40.957031 30 C 43.003906 30 44.824219 31.226562 45.59375 33.125 L 45.644531 33.25 C 45.898438 33.875 45.828125 34.558594 45.449219 35.117188 C 45.070312 35.679688 44.464844 36 43.789062 36 L 38 36 C 36.898438 36 36 35.101562 36 34 C 36 31.792969 37.792969 30 40 30 Z M 32 39 C 32.550781 39 33 39.449219 33 40 L 33 41 L 31 41 L 31 40 C 31 39.449219 31.449219 39 32 39 Z M 17 40 C 16.445312 40 16 40.445312 16 41 C 16 41.554688 16.445312 42 17 42 L 26 42 C 26.554688 42 27 41.554688 27 41 C 27 40.445312 26.554688 40 26 40 Z M 38 40 C 37.445312 40 37 40.445312 37 41 C 37 41.554688 37.445312 42 38 42 L 47 42 C 47.554688 42 48 41.554688 48 41 C 48 40.445312 47.554688 40 47 40 Z M 30.464844 43 L 33.535156 43 L 42.417969 53.503906 C 42.324219 53.660156 42.246094 53.828125 42.183594 54.003906 L 21.816406 54.003906 C 21.753906 53.828125 21.675781 53.660156 21.582031 53.503906 Z M 32 46 C 31.445312 46 31 46.445312 31 47 L 31 52.003906 C 31 52.558594 31.445312 53.003906 32 53.003906 C 32.554688 53.003906 33 52.558594 33 52.003906 L 33 47 C 33 46.445312 32.554688 46 32 46 Z M 27 49.003906 C 26.445312 49.003906 26 49.449219 26 50.003906 L 26 52.003906 C 26 52.558594 26.445312 53.003906 27 53.003906 C 27.554688 53.003906 28 52.558594 28 52.003906 L 28 50.003906 C 28 49.449219 27.554688 49.003906 27 49.003906 Z M 37 49.003906 C 36.445312 49.003906 36 49.449219 36 50.003906 L 36 52.003906 C 36 52.558594 36.445312 53.003906 37 53.003906 C 37.554688 53.003906 38 52.558594 38 52.003906 L 38 50.003906 C 38 49.449219 37.554688 49.003906 37 49.003906 Z M 19 54.003906 C 19.550781 54.003906 20 54.453125 20 55.003906 C 20 55.554688 19.550781 56.003906 19 56.003906 C 18.449219 56.003906 18 55.554688 18 55.003906 C 18 54.453125 18.449219 54.003906 19 54.003906 Z M 45 54.003906 C 45.550781 54.003906 46 54.453125 46 55.003906 C 46 55.554688 45.550781 56.003906 45 56.003906 C 44.449219 56.003906 44 55.554688 44 55.003906 C 44 54.453125 44.449219 54.003906 45 54.003906 Z M 23.300781 56.003906 L 40.699219 56.003906 L 32.558594 61.433594 C 32.21875 61.660156 31.78125 61.660156 31.445312 61.433594 Z M 23.300781 56.003906 "/>
</g>
</svg>
